<svg id="visual" viewBox="0 0 900 600" width="900" height="600" xmlns="http://www.w3.org/2000/svg" xmlns:xlink="http://www.w3.org/1999/xlink" version="1.1"><g stroke-width="1" stroke-linejoin="bevel"><path d="M450 300L450 240L385.7 300Z" fill="#00617a" stroke="#00617a"></path><path d="M450 240L385.7 240L385.7 300Z" fill="#08162b" stroke="#08162b"></path><path d="M450 240L450 180L385.7 240Z" fill="#06415c" stroke="#06415c"></path><path d="M385.7 300L450 360L450 300Z" fill="#09233c" stroke="#09233c"></path><path d="M450 180L385.7 180L385.7 240Z" fill="#29a6a6" stroke="#29a6a6"></path><path d="M385.7 300L385.7 360L450 360Z" fill="#09324c" stroke="#09324c"></path><path d="M450 360L514.3 300L450 300Z" fill="#00516c" stroke="#00516c"></path><path d="M450 300L514.3 300L450 240Z" fill="#29a6a6" stroke="#29a6a6"></path><path d="M450 240L514.3 240L450 180Z" fill="#007288" stroke="#007288"></path><path d="M514.3 300L514.3 240L450 240Z" fill="#06415c" stroke="#06415c"></path><path d="M385.7 180L321.4 240L385.7 240Z" fill="#00516c" stroke="#00516c"></path><path d="M385.7 240L321.4 240L385.7 300Z" fill="#00516c" stroke="#00516c"></path><path d="M385.7 300L321.4 300L385.7 360Z" fill="#08162b" stroke="#08162b"></path><path d="M321.4 240L321.4 300L385.7 300Z" fill="#008393" stroke="#008393"></path><path d="M450 360L514.3 360L514.3 300Z" fill="#08162b" stroke="#08162b"></path><path d="M514.3 240L514.3 180L450 180Z" fill="#00516c" stroke="#00516c"></path><path d="M385.7 180L321.4 180L321.4 240Z" fill="#29a6a6" stroke="#29a6a6"></path><path d="M321.4 300L321.4 360L385.7 360Z" fill="#09233c" stroke="#09233c"></path><path d="M514.3 180L450 120L450 180Z" fill="#00617a" stroke="#00617a"></path><path d="M450 180L450 120L385.7 180Z" fill="#007288" stroke="#007288"></path><path d="M385.7 180L385.7 120L321.4 180Z" fill="#00011c" stroke="#00011c"></path><path d="M385.7 420L450 420L385.7 360Z" fill="#11959d" stroke="#11959d"></path><path d="M385.7 360L450 420L450 360Z" fill="#06415c" stroke="#06415c"></path><path d="M450 360L450 420L514.3 360Z" fill="#09233c" stroke="#09233c"></path><path d="M321.4 360L385.7 420L385.7 360Z" fill="#00516c" stroke="#00516c"></path><path d="M450 120L385.7 120L385.7 180Z" fill="#00617a" stroke="#00617a"></path><path d="M514.3 360L578.6 300L514.3 300Z" fill="#007288" stroke="#007288"></path><path d="M514.3 300L578.6 300L514.3 240Z" fill="#06415c" stroke="#06415c"></path><path d="M514.3 240L578.6 240L514.3 180Z" fill="#00011c" stroke="#00011c"></path><path d="M578.6 360L578.6 300L514.3 360Z" fill="#09324c" stroke="#09324c"></path><path d="M578.6 300L578.6 240L514.3 240Z" fill="#00516c" stroke="#00516c"></path><path d="M514.3 180L514.3 120L450 120Z" fill="#09324c" stroke="#09324c"></path><path d="M321.4 180L257.1 240L321.4 240Z" fill="#008393" stroke="#008393"></path><path d="M321.4 240L257.1 240L321.4 300Z" fill="#00617a" stroke="#00617a"></path><path d="M321.4 300L257.1 300L321.4 360Z" fill="#007288" stroke="#007288"></path><path d="M257.1 240L257.1 300L321.4 300Z" fill="#06415c" stroke="#06415c"></path><path d="M578.6 180L514.3 120L514.3 180Z" fill="#11959d" stroke="#11959d"></path><path d="M450 420L514.3 420L514.3 360Z" fill="#008393" stroke="#008393"></path><path d="M257.1 360L321.4 420L321.4 360Z" fill="#008393" stroke="#008393"></path><path d="M321.4 360L321.4 420L385.7 420Z" fill="#00011c" stroke="#00011c"></path><path d="M385.7 120L321.4 120L321.4 180Z" fill="#09233c" stroke="#09233c"></path><path d="M321.4 180L257.1 180L257.1 240Z" fill="#06415c" stroke="#06415c"></path><path d="M514.3 420L578.6 360L514.3 360Z" fill="#09233c" stroke="#09233c"></path><path d="M578.6 240L578.6 180L514.3 180Z" fill="#11959d" stroke="#11959d"></path><path d="M321.4 120L257.1 180L321.4 180Z" fill="#11959d" stroke="#11959d"></path><path d="M257.1 300L257.1 360L321.4 360Z" fill="#00011c" stroke="#00011c"></path><path d="M385.7 420L450 480L450 420Z" fill="#00516c" stroke="#00516c"></path><path d="M450 420L450 480L514.3 420Z" fill="#09233c" stroke="#09233c"></path><path d="M514.3 420L578.6 420L578.6 360Z" fill="#00011c" stroke="#00011c"></path><path d="M385.7 480L450 480L385.7 420Z" fill="#008393" stroke="#008393"></path><path d="M514.3 120L450 60L450 120Z" fill="#00516c" stroke="#00516c"></path><path d="M450 120L450 60L385.7 120Z" fill="#007288" stroke="#007288"></path><path d="M385.7 120L385.7 60L321.4 120Z" fill="#29a6a6" stroke="#29a6a6"></path><path d="M514.3 60L450 60L514.3 120Z" fill="#007288" stroke="#007288"></path><path d="M450 60L385.7 60L385.7 120Z" fill="#06415c" stroke="#06415c"></path><path d="M321.4 420L385.7 480L385.7 420Z" fill="#09233c" stroke="#09233c"></path><path d="M578.6 180L578.6 120L514.3 120Z" fill="#00617a" stroke="#00617a"></path><path d="M514.3 480L578.6 420L514.3 420Z" fill="#09233c" stroke="#09233c"></path><path d="M321.4 60L257.1 120L321.4 120Z" fill="#29a6a6" stroke="#29a6a6"></path><path d="M321.4 120L257.1 120L257.1 180Z" fill="#29a6a6" stroke="#29a6a6"></path><path d="M257.1 360L257.1 420L321.4 420Z" fill="#29a6a6" stroke="#29a6a6"></path><path d="M321.4 420L321.4 480L385.7 480Z" fill="#09233c" stroke="#09233c"></path><path d="M642.9 300L578.6 300L578.6 360Z" fill="#29a6a6" stroke="#29a6a6"></path><path d="M642.9 300L642.9 240L578.6 300Z" fill="#09324c" stroke="#09324c"></path><path d="M578.6 300L642.9 240L578.6 240Z" fill="#008393" stroke="#008393"></path><path d="M578.6 240L642.9 240L578.6 180Z" fill="#09233c" stroke="#09233c"></path><path d="M578.6 180L642.9 180L578.6 120Z" fill="#11959d" stroke="#11959d"></path><path d="M642.9 360L642.9 300L578.6 360Z" fill="#08162b" stroke="#08162b"></path><path d="M257.1 240L192.9 300L257.1 300Z" fill="#008393" stroke="#008393"></path><path d="M257.1 300L192.9 300L257.1 360Z" fill="#00011c" stroke="#00011c"></path><path d="M257.1 360L192.9 360L257.1 420Z" fill="#06415c" stroke="#06415c"></path><path d="M192.9 240L192.9 300L257.1 240Z" fill="#00516c" stroke="#00516c"></path><path d="M192.9 240L257.1 240L257.1 180Z" fill="#00011c" stroke="#00011c"></path><path d="M192.9 180L192.9 240L257.1 180Z" fill="#09324c" stroke="#09324c"></path><path d="M450 480L514.3 480L514.3 420Z" fill="#008393" stroke="#008393"></path><path d="M578.6 120L514.3 60L514.3 120Z" fill="#008393" stroke="#008393"></path><path d="M257.1 420L321.4 480L321.4 420Z" fill="#06415c" stroke="#06415c"></path><path d="M385.7 60L321.4 60L321.4 120Z" fill="#08162b" stroke="#08162b"></path><path d="M642.9 240L642.9 180L578.6 180Z" fill="#09233c" stroke="#09233c"></path><path d="M578.6 420L642.9 360L578.6 360Z" fill="#09233c" stroke="#09233c"></path><path d="M192.9 300L192.9 360L257.1 360Z" fill="#007288" stroke="#007288"></path><path d="M257.1 120L192.9 180L257.1 180Z" fill="#00011c" stroke="#00011c"></path><path d="M514.3 480L578.6 480L578.6 420Z" fill="#007288" stroke="#007288"></path><path d="M578.6 420L642.9 420L642.9 360Z" fill="#00617a" stroke="#00617a"></path><path d="M642.9 120L578.6 60L578.6 120Z" fill="#29a6a6" stroke="#29a6a6"></path><path d="M578.6 120L578.6 60L514.3 60Z" fill="#29a6a6" stroke="#29a6a6"></path><path d="M192.9 420L257.1 480L257.1 420Z" fill="#00011c" stroke="#00011c"></path><path d="M257.1 420L257.1 480L321.4 480Z" fill="#06415c" stroke="#06415c"></path><path d="M321.4 60L257.1 60L257.1 120Z" fill="#007288" stroke="#007288"></path><path d="M257.1 120L192.9 120L192.9 180Z" fill="#00617a" stroke="#00617a"></path><path d="M578.6 480L642.9 420L578.6 420Z" fill="#29a6a6" stroke="#29a6a6"></path><path d="M642.9 180L642.9 120L578.6 120Z" fill="#00617a" stroke="#00617a"></path><path d="M192.9 360L192.9 420L257.1 420Z" fill="#00011c" stroke="#00011c"></path><path d="M257.1 60L192.9 120L257.1 120Z" fill="#09324c" stroke="#09324c"></path><path d="M385.7 60L385.7 0L321.4 60Z" fill="#09324c" stroke="#09324c"></path><path d="M321.4 60L321.4 0L257.1 60Z" fill="#00011c" stroke="#00011c"></path><path d="M450 60L385.7 0L385.7 60Z" fill="#00011c" stroke="#00011c"></path><path d="M450 0L385.7 0L450 60Z" fill="#08162b" stroke="#08162b"></path><path d="M450 0L450 60L514.3 60Z" fill="#00011c" stroke="#00011c"></path><path d="M514.3 0L450 0L514.3 60Z" fill="#09233c" stroke="#09233c"></path><path d="M385.7 480L450 540L450 480Z" fill="#29a6a6" stroke="#29a6a6"></path><path d="M450 480L450 540L514.3 480Z" fill="#007288" stroke="#007288"></path><path d="M514.3 480L514.3 540L578.6 480Z" fill="#00516c" stroke="#00516c"></path><path d="M385.7 540L450 540L385.7 480Z" fill="#09233c" stroke="#09233c"></path><path d="M385.7 540L385.7 480L321.4 480Z" fill="#09324c" stroke="#09324c"></path><path d="M321.4 540L385.7 540L321.4 480Z" fill="#00516c" stroke="#00516c"></path><path d="M578.6 60L514.3 0L514.3 60Z" fill="#00516c" stroke="#00516c"></path><path d="M450 540L514.3 540L514.3 480Z" fill="#06415c" stroke="#06415c"></path><path d="M257.1 480L321.4 540L321.4 480Z" fill="#29a6a6" stroke="#29a6a6"></path><path d="M385.7 0L321.4 0L321.4 60Z" fill="#00011c" stroke="#00011c"></path><path d="M642.9 300L707.1 240L642.9 240Z" fill="#09233c" stroke="#09233c"></path><path d="M642.9 240L707.1 240L642.9 180Z" fill="#08162b" stroke="#08162b"></path><path d="M642.9 180L707.1 180L642.9 120Z" fill="#00011c" stroke="#00011c"></path><path d="M707.1 300L707.1 240L642.9 300Z" fill="#06415c" stroke="#06415c"></path><path d="M707.1 300L642.9 300L642.9 360Z" fill="#007288" stroke="#007288"></path><path d="M707.1 360L707.1 300L642.9 360Z" fill="#00516c" stroke="#00516c"></path><path d="M192.9 300L128.6 360L192.9 360Z" fill="#00516c" stroke="#00516c"></path><path d="M192.9 360L128.6 420L192.9 420Z" fill="#29a6a6" stroke="#29a6a6"></path><path d="M128.6 240L128.6 300L192.9 300Z" fill="#09233c" stroke="#09233c"></path><path d="M128.6 240L192.9 300L192.9 240Z" fill="#08162b" stroke="#08162b"></path><path d="M128.6 240L192.9 240L128.6 180Z" fill="#00516c" stroke="#00516c"></path><path d="M128.6 180L192.9 240L192.9 180Z" fill="#00011c" stroke="#00011c"></path><path d="M707.1 420L707.1 360L642.9 420Z" fill="#09233c" stroke="#09233c"></path><path d="M642.9 420L707.1 360L642.9 360Z" fill="#08162b" stroke="#08162b"></path><path d="M707.1 240L707.1 180L642.9 180Z" fill="#06415c" stroke="#06415c"></path><path d="M642.9 120L642.9 60L578.6 60Z" fill="#00011c" stroke="#00011c"></path><path d="M128.6 120L128.6 180L192.9 180Z" fill="#00011c" stroke="#00011c"></path><path d="M128.6 300L128.6 360L192.9 300Z" fill="#00516c" stroke="#00516c"></path><path d="M578.6 540L642.9 480L578.6 480Z" fill="#00516c" stroke="#00516c"></path><path d="M578.6 480L642.9 480L642.9 420Z" fill="#09324c" stroke="#09324c"></path><path d="M707.1 120L642.9 60L642.9 120Z" fill="#06415c" stroke="#06415c"></path><path d="M578.6 60L578.6 0L514.3 0Z" fill="#11959d" stroke="#11959d"></path><path d="M192.9 420L192.9 480L257.1 480Z" fill="#00516c" stroke="#00516c"></path><path d="M257.1 480L257.1 540L321.4 540Z" fill="#007288" stroke="#007288"></path><path d="M128.6 480L192.9 480L192.9 420Z" fill="#08162b" stroke="#08162b"></path><path d="M257.1 60L192.9 60L192.9 120Z" fill="#08162b" stroke="#08162b"></path><path d="M192.9 120L128.6 120L192.9 180Z" fill="#06415c" stroke="#06415c"></path><path d="M257.1 0L192.9 60L257.1 60Z" fill="#09233c" stroke="#09233c"></path><path d="M642.9 60L578.6 0L578.6 60Z" fill="#08162b" stroke="#08162b"></path><path d="M514.3 540L578.6 540L578.6 480Z" fill="#00011c" stroke="#00011c"></path><path d="M192.9 480L257.1 540L257.1 480Z" fill="#00011c" stroke="#00011c"></path><path d="M321.4 0L257.1 0L257.1 60Z" fill="#08162b" stroke="#08162b"></path><path d="M642.9 480L707.1 420L642.9 420Z" fill="#008393" stroke="#008393"></path><path d="M707.1 480L707.1 420L642.9 480Z" fill="#00516c" stroke="#00516c"></path><path d="M707.1 180L707.1 120L642.9 120Z" fill="#007288" stroke="#007288"></path><path d="M642.9 60L642.9 0L578.6 0Z" fill="#008393" stroke="#008393"></path><path d="M128.6 60L128.6 120L192.9 120Z" fill="#00516c" stroke="#00516c"></path><path d="M128.6 360L128.6 420L192.9 360Z" fill="#008393" stroke="#008393"></path><path d="M321.4 600L385.7 600L321.4 540Z" fill="#00011c" stroke="#00011c"></path><path d="M321.4 540L385.7 600L385.7 540Z" fill="#06415c" stroke="#06415c"></path><path d="M385.7 540L385.7 600L450 540Z" fill="#00617a" stroke="#00617a"></path><path d="M450 540L450 600L514.3 540Z" fill="#06415c" stroke="#06415c"></path><path d="M514.3 540L514.3 600L578.6 540Z" fill="#09324c" stroke="#09324c"></path><path d="M385.7 600L450 600L450 540Z" fill="#00516c" stroke="#00516c"></path><path d="M450 600L514.3 600L514.3 540Z" fill="#11959d" stroke="#11959d"></path><path d="M257.1 540L321.4 600L321.4 540Z" fill="#00516c" stroke="#00516c"></path><path d="M578.6 600L642.9 540L578.6 540Z" fill="#00516c" stroke="#00516c"></path><path d="M578.6 540L642.9 540L642.9 480Z" fill="#09324c" stroke="#09324c"></path><path d="M707.1 60L642.9 0L642.9 60Z" fill="#008393" stroke="#008393"></path><path d="M257.1 0L192.9 0L192.9 60Z" fill="#08162b" stroke="#08162b"></path><path d="M192.9 60L128.6 60L192.9 120Z" fill="#008393" stroke="#008393"></path><path d="M128.6 540L192.9 540L192.9 480Z" fill="#00516c" stroke="#00516c"></path><path d="M192.9 480L192.9 540L257.1 540Z" fill="#06415c" stroke="#06415c"></path><path d="M257.1 540L257.1 600L321.4 600Z" fill="#00617a" stroke="#00617a"></path><path d="M707.1 300L771.4 300L707.1 240Z" fill="#09233c" stroke="#09233c"></path><path d="M707.1 240L771.4 240L707.1 180Z" fill="#06415c" stroke="#06415c"></path><path d="M707.1 180L771.4 180L707.1 120Z" fill="#00617a" stroke="#00617a"></path><path d="M707.1 360L771.4 300L707.1 300Z" fill="#08162b" stroke="#08162b"></path><path d="M771.4 360L771.4 300L707.1 360Z" fill="#09324c" stroke="#09324c"></path><path d="M771.4 300L771.4 240L707.1 240Z" fill="#007288" stroke="#007288"></path><path d="M128.6 300L64.3 360L128.6 360Z" fill="#007288" stroke="#007288"></path><path d="M128.6 360L64.3 420L128.6 420Z" fill="#08162b" stroke="#08162b"></path><path d="M64.3 240L64.3 300L128.6 300Z" fill="#008393" stroke="#008393"></path><path d="M64.3 240L128.6 300L128.6 240Z" fill="#00516c" stroke="#00516c"></path><path d="M64.3 240L128.6 240L64.3 180Z" fill="#00617a" stroke="#00617a"></path><path d="M64.3 180L128.6 240L128.6 180Z" fill="#007288" stroke="#007288"></path><path d="M771.4 120L707.1 60L707.1 120Z" fill="#29a6a6" stroke="#29a6a6"></path><path d="M707.1 120L707.1 60L642.9 60Z" fill="#09233c" stroke="#09233c"></path><path d="M642.9 540L707.1 480L642.9 480Z" fill="#00516c" stroke="#00516c"></path><path d="M707.1 420L771.4 360L707.1 360Z" fill="#09324c" stroke="#09324c"></path><path d="M128.6 0L128.6 60L192.9 60Z" fill="#09324c" stroke="#09324c"></path><path d="M64.3 120L64.3 180L128.6 180Z" fill="#08162b" stroke="#08162b"></path><path d="M64.3 480L128.6 480L128.6 420Z" fill="#00516c" stroke="#00516c"></path><path d="M128.6 420L128.6 480L192.9 420Z" fill="#09233c" stroke="#09233c"></path><path d="M771.4 420L771.4 360L707.1 420Z" fill="#09233c" stroke="#09233c"></path><path d="M771.4 240L771.4 180L707.1 180Z" fill="#00516c" stroke="#00516c"></path><path d="M64.3 300L64.3 360L128.6 300Z" fill="#06415c" stroke="#06415c"></path><path d="M64.3 120L128.6 180L128.6 120Z" fill="#008393" stroke="#008393"></path><path d="M514.3 600L578.6 600L578.6 540Z" fill="#00617a" stroke="#00617a"></path><path d="M642.9 540L707.1 540L707.1 480Z" fill="#29a6a6" stroke="#29a6a6"></path><path d="M192.9 540L257.1 600L257.1 540Z" fill="#08162b" stroke="#08162b"></path><path d="M771.4 180L771.4 120L707.1 120Z" fill="#00011c" stroke="#00011c"></path><path d="M771.4 480L771.4 420L707.1 480Z" fill="#00617a" stroke="#00617a"></path><path d="M707.1 480L771.4 420L707.1 420Z" fill="#00011c" stroke="#00011c"></path><path d="M64.3 360L64.3 420L128.6 360Z" fill="#09233c" stroke="#09233c"></path><path d="M64.3 60L64.3 120L128.6 120Z" fill="#11959d" stroke="#11959d"></path><path d="M707.1 60L707.1 0L642.9 0Z" fill="#09324c" stroke="#09324c"></path><path d="M771.4 60L707.1 0L707.1 60Z" fill="#007288" stroke="#007288"></path><path d="M642.9 600L707.1 540L642.9 540Z" fill="#09233c" stroke="#09233c"></path><path d="M192.9 0L128.6 0L192.9 60Z" fill="#00516c" stroke="#00516c"></path><path d="M128.6 60L64.3 60L128.6 120Z" fill="#09233c" stroke="#09233c"></path><path d="M128.6 480L128.6 540L192.9 480Z" fill="#09324c" stroke="#09324c"></path><path d="M192.9 540L192.9 600L257.1 600Z" fill="#29a6a6" stroke="#29a6a6"></path><path d="M64.3 540L128.6 540L128.6 480Z" fill="#06415c" stroke="#06415c"></path><path d="M578.6 600L642.9 600L642.9 540Z" fill="#08162b" stroke="#08162b"></path><path d="M128.6 600L192.9 600L192.9 540Z" fill="#09324c" stroke="#09324c"></path><path d="M707.1 540L771.4 480L707.1 480Z" fill="#08162b" stroke="#08162b"></path><path d="M771.4 120L771.4 60L707.1 60Z" fill="#08162b" stroke="#08162b"></path><path d="M64.3 420L64.3 480L128.6 420Z" fill="#00011c" stroke="#00011c"></path><path d="M64.3 0L64.3 60L128.6 60Z" fill="#007288" stroke="#007288"></path><path d="M771.4 300L835.7 240L771.4 240Z" fill="#11959d" stroke="#11959d"></path><path d="M771.4 240L835.7 240L771.4 180Z" fill="#11959d" stroke="#11959d"></path><path d="M771.4 180L835.7 180L771.4 120Z" fill="#007288" stroke="#007288"></path><path d="M771.4 120L835.7 120L771.4 60Z" fill="#11959d" stroke="#11959d"></path><path d="M835.7 300L835.7 240L771.4 300Z" fill="#08162b" stroke="#08162b"></path><path d="M835.7 300L771.4 300L771.4 360Z" fill="#29a6a6" stroke="#29a6a6"></path><path d="M835.7 300L771.4 360L835.7 360Z" fill="#09324c" stroke="#09324c"></path><path d="M835.7 360L771.4 360L771.4 420Z" fill="#08162b" stroke="#08162b"></path><path d="M0 180L64.3 180L0 120Z" fill="#09324c" stroke="#09324c"></path><path d="M0 180L64.3 240L64.3 180Z" fill="#007288" stroke="#007288"></path><path d="M0 180L0 240L64.3 240Z" fill="#00617a" stroke="#00617a"></path><path d="M64.3 240L0 300L64.3 300Z" fill="#008393" stroke="#008393"></path><path d="M64.3 300L0 360L64.3 360Z" fill="#11959d" stroke="#11959d"></path><path d="M64.3 360L0 420L64.3 420Z" fill="#11959d" stroke="#11959d"></path><path d="M64.3 420L0 480L64.3 480Z" fill="#00011c" stroke="#00011c"></path><path d="M0 240L0 300L64.3 240Z" fill="#09233c" stroke="#09233c"></path><path d="M835.7 240L835.7 180L771.4 180Z" fill="#09324c" stroke="#09324c"></path><path d="M835.7 420L835.7 360L771.4 420Z" fill="#00617a" stroke="#00617a"></path><path d="M0 120L64.3 180L64.3 120Z" fill="#11959d" stroke="#11959d"></path><path d="M0 300L0 360L64.3 300Z" fill="#00516c" stroke="#00516c"></path><path d="M642.9 600L707.1 600L707.1 540Z" fill="#06415c" stroke="#06415c"></path><path d="M707.1 540L771.4 540L771.4 480Z" fill="#06415c" stroke="#06415c"></path><path d="M64.3 600L128.6 600L128.6 540Z" fill="#00617a" stroke="#00617a"></path><path d="M128.6 540L128.6 600L192.9 540Z" fill="#09324c" stroke="#09324c"></path><path d="M835.7 480L835.7 420L771.4 480Z" fill="#08162b" stroke="#08162b"></path><path d="M771.4 480L835.7 420L771.4 420Z" fill="#00617a" stroke="#00617a"></path><path d="M835.7 180L835.7 120L771.4 120Z" fill="#11959d" stroke="#11959d"></path><path d="M0 60L0 120L64.3 120Z" fill="#008393" stroke="#008393"></path><path d="M0 360L0 420L64.3 360Z" fill="#11959d" stroke="#11959d"></path><path d="M64.3 480L64.3 540L128.6 480Z" fill="#00011c" stroke="#00011c"></path><path d="M835.7 60L771.4 0L771.4 60Z" fill="#11959d" stroke="#11959d"></path><path d="M771.4 60L771.4 0L707.1 0Z" fill="#06415c" stroke="#06415c"></path><path d="M707.1 600L771.4 540L707.1 540Z" fill="#11959d" stroke="#11959d"></path><path d="M128.6 0L64.3 0L128.6 60Z" fill="#00617a" stroke="#00617a"></path><path d="M64.3 60L0 60L64.3 120Z" fill="#008393" stroke="#008393"></path><path d="M0 540L64.3 540L64.3 480Z" fill="#06415c" stroke="#06415c"></path><path d="M835.7 120L835.7 60L771.4 60Z" fill="#00011c" stroke="#00011c"></path><path d="M771.4 540L835.7 480L771.4 480Z" fill="#08162b" stroke="#08162b"></path><path d="M0 420L0 480L64.3 420Z" fill="#00617a" stroke="#00617a"></path><path d="M0 0L0 60L64.3 60Z" fill="#08162b" stroke="#08162b"></path><path d="M835.7 300L900 240L835.7 240Z" fill="#08162b" stroke="#08162b"></path><path d="M835.7 240L900 240L835.7 180Z" fill="#09324c" stroke="#09324c"></path><path d="M835.7 180L900 180L835.7 120Z" fill="#00011c" stroke="#00011c"></path><path d="M835.7 120L900 120L835.7 60Z" fill="#00617a" stroke="#00617a"></path><path d="M900 300L900 240L835.7 300Z" fill="#09233c" stroke="#09233c"></path><path d="M900 300L835.7 300L835.7 360Z" fill="#00516c" stroke="#00516c"></path><path d="M900 300L835.7 360L900 360Z" fill="#06415c" stroke="#06415c"></path><path d="M900 360L835.7 360L835.7 420Z" fill="#00516c" stroke="#00516c"></path><path d="M707.1 600L771.4 600L771.4 540Z" fill="#09233c" stroke="#09233c"></path><path d="M771.4 540L835.7 540L835.7 480Z" fill="#00516c" stroke="#00516c"></path><path d="M0 600L64.3 600L64.3 540Z" fill="#00011c" stroke="#00011c"></path><path d="M64.3 540L64.3 600L128.6 540Z" fill="#11959d" stroke="#11959d"></path><path d="M900 420L835.7 420L835.7 480Z" fill="#008393" stroke="#008393"></path><path d="M900 420L900 360L835.7 420Z" fill="#29a6a6" stroke="#29a6a6"></path><path d="M900 240L900 180L835.7 180Z" fill="#00011c" stroke="#00011c"></path><path d="M900 60L835.7 0L835.7 60Z" fill="#007288" stroke="#007288"></path><path d="M835.7 60L835.7 0L771.4 0Z" fill="#06415c" stroke="#06415c"></path><path d="M771.4 600L835.7 540L771.4 540Z" fill="#11959d" stroke="#11959d"></path><path d="M64.3 0L0 0L64.3 60Z" fill="#11959d" stroke="#11959d"></path><path d="M0 480L0 540L64.3 480Z" fill="#09324c" stroke="#09324c"></path><path d="M900 480L900 420L835.7 480Z" fill="#00617a" stroke="#00617a"></path><path d="M900 180L900 120L835.7 120Z" fill="#11959d" stroke="#11959d"></path><path d="M900 540L900 480L835.7 540Z" fill="#08162b" stroke="#08162b"></path><path d="M835.7 540L900 480L835.7 480Z" fill="#09233c" stroke="#09233c"></path><path d="M900 120L900 60L835.7 60Z" fill="#09324c" stroke="#09324c"></path><path d="M771.4 600L835.7 600L835.7 540Z" fill="#007288" stroke="#007288"></path><path d="M0 540L0 600L64.3 540Z" fill="#09233c" stroke="#09233c"></path><path d="M835.7 600L900 540L835.7 540Z" fill="#00011c" stroke="#00011c"></path><path d="M900 60L900 0L835.7 0Z" fill="#29a6a6" stroke="#29a6a6"></path><path d="M835.7 600L900 600L900 540Z" fill="#00011c" stroke="#00011c"></path></g></svg>